<svg width="720" height="480" viewBox="0 0 720 480" fill="none" xmlns="http://www.w3.org/2000/svg">
  <defs><filter id="s" x="-20%" y="-20%" width="140%" height="140%"><feDropShadow dx="0" dy="12" stdDeviation="14" flood-color="#84644E" flood-opacity=".12"/></filter></defs>
  <rect width="720" height="480" rx="28" fill="#FBF3E8"/>
  <path d="M120 242H596" stroke="#D9B99C" stroke-width="4" stroke-linecap="round" stroke-dasharray="10 14"/>
  <g filter="url(#s)"><rect x="58" y="146" width="150" height="190" rx="24" fill="#FFFDF8"/><circle cx="133" cy="205" r="30" fill="#E8A088"/><path d="M102 284C119 264 147 264 164 284" stroke="#D77D70" stroke-width="10" stroke-linecap="round"/><path d="M98 314H168" stroke="#E7DCC8" stroke-width="9" stroke-linecap="round"/></g>
  <g filter="url(#s)"><rect x="285" y="104" width="150" height="276" rx="24" fill="#FFFDF8"/><rect x="322" y="145" width="76" height="18" rx="9" fill="#DDE2D0"/><rect x="322" y="188" width="76" height="18" rx="9" fill="#EED2AF"/><rect x="322" y="231" width="76" height="18" rx="9" fill="#E8A088"/><circle cx="360" cy="310" r="26" fill="#A9B598"/><path d="M349 310L357 318L373 300" stroke="#FFFDF8" stroke-width="6" stroke-linecap="round" stroke-linejoin="round"/></g>
  <g filter="url(#s)"><rect x="512" y="146" width="150" height="190" rx="24" fill="#FFFDF8"/><path d="M550 286L575 260L594 277L625 230" stroke="#A9B598" stroke-width="10" stroke-linecap="round" stroke-linejoin="round"/><circle cx="550" cy="286" r="8" fill="#D77D70"/><circle cx="575" cy="260" r="8" fill="#D77D70"/><circle cx="594" cy="277" r="8" fill="#D77D70"/><circle cx="625" cy="230" r="8" fill="#D77D70"/></g>
</svg>
